<svg xmlns="http://www.w3.org/2000/svg" width="21" height="22.616" viewBox="0 0 21 22.616"><path d="M-415-97.439v16.153a1.553,1.553,0,0,1-.481,1.136,1.552,1.552,0,0,1-1.134.479h-17.77a1.559,1.559,0,0,1-1.136-.479A1.559,1.559,0,0,1-436-81.286V-97.439a1.559,1.559,0,0,1,.479-1.136,1.559,1.559,0,0,1,1.136-.479h1.615v-1.212a1.944,1.944,0,0,1,.594-1.427,1.944,1.944,0,0,1,1.427-.594h.807a1.944,1.944,0,0,1,1.427.594,1.944,1.944,0,0,1,.594,1.427v1.212h4.845v-1.212a1.944,1.944,0,0,1,.594-1.427,1.944,1.944,0,0,1,1.427-.594h.807a1.944,1.944,0,0,1,1.427.594,1.945,1.945,0,0,1,.594,1.427v1.212h1.615a1.552,1.552,0,0,1,1.134.479A1.553,1.553,0,0,1-415-97.439Zm-19.385,6.866h3.636v-3.635h-3.636Zm0,4.845h3.636v-4.039h-3.636Zm0,4.442h3.636v-3.634h-3.636Zm4.847-15.347v-3.634a.4.4,0,0,0-.121-.285.4.4,0,0,0-.285-.121h-.807a.392.392,0,0,0-.285.121.4.4,0,0,0-.121.285v3.634a.392.392,0,0,0,.121.285.392.392,0,0,0,.285.121h.807a.4.4,0,0,0,.285-.121A.392.392,0,0,0-429.538-96.632Zm-.405,6.059h4.039v-3.635h-4.039Zm0,4.845h4.039v-4.039h-4.039Zm0,4.442h4.039v-3.634h-4.039Zm4.847-9.287h4.039v-3.635H-425.1Zm0,4.845h4.039v-4.039H-425.1Zm0,4.442h4.039v-3.634H-425.1Zm5.249-15.347v-3.634a.393.393,0,0,0-.119-.285.4.4,0,0,0-.285-.121h-.807a.392.392,0,0,0-.284.121.387.387,0,0,0-.121.285v3.634a.385.385,0,0,0,.121.285.392.392,0,0,0,.284.121h.807a.4.4,0,0,0,.285-.121A.39.39,0,0,0-419.847-96.632Zm-.4,6.059h3.636v-3.635h-3.636Zm0,4.845h3.636v-4.039h-3.636Zm0,4.442h3.636v-3.634h-3.636Z" transform="translate(436 102.286)" fill="#fff"/></svg>