<svg xmlns="http://www.w3.org/2000/svg" width="21.998" height="22" viewBox="0 0 21.998 22"><path d="M-404.332-95.949a10.773,10.773,0,0,1,1.474,5.52,10.781,10.781,0,0,1-1.474,5.523,10.937,10.937,0,0,1-4,4,10.76,10.76,0,0,1-5.52,1.476,10.762,10.762,0,0,1-5.523-1.476,10.915,10.915,0,0,1-4-4,10.762,10.762,0,0,1-1.476-5.523,10.754,10.754,0,0,1,1.476-5.52,10.936,10.936,0,0,1,4-4,10.762,10.762,0,0,1,5.523-1.476,10.76,10.76,0,0,1,5.52,1.476A10.958,10.958,0,0,1-404.332-95.949Zm-2.781,9.43a7.611,7.611,0,0,0,1.046-3.91,7.616,7.616,0,0,0-1.046-3.91,7.783,7.783,0,0,0-2.834-2.836,7.617,7.617,0,0,0-3.91-1.046,7.606,7.606,0,0,0-3.91,1.046,7.763,7.763,0,0,0-2.838,2.836,7.636,7.636,0,0,0-1.044,3.91,7.63,7.63,0,0,0,1.044,3.91,7.746,7.746,0,0,0,2.838,2.836,7.606,7.606,0,0,0,3.91,1.046,7.616,7.616,0,0,0,3.91-1.046A7.767,7.767,0,0,0-407.113-86.519Zm-4.911-8.951v6.417a.445.445,0,0,1-.128.329.453.453,0,0,1-.332.128h-4.581a.45.45,0,0,1-.332-.128.445.445,0,0,1-.128-.329v-.915a.453.453,0,0,1,.128-.332.45.45,0,0,1,.332-.128h3.208V-95.47a.448.448,0,0,1,.128-.329.445.445,0,0,1,.329-.128h.915a.453.453,0,0,1,.332.128A.448.448,0,0,1-412.024-95.47Z" transform="translate(424.857 101.429)" fill="#fff"/></svg>