<svg xmlns="http://www.w3.org/2000/svg" width="22.055" height="22.055" viewBox="0 0 22.055 22.055"><path d="M-216.425-110.936a10.78,10.78,0,0,1,1.479,5.534,10.788,10.788,0,0,1-1.479,5.536,10.964,10.964,0,0,1-4.014,4.012,10.775,10.775,0,0,1-5.534,1.479,10.775,10.775,0,0,1-5.534-1.479,10.931,10.931,0,0,1-4.014-4.012A10.788,10.788,0,0,1-237-105.4a10.781,10.781,0,0,1,1.479-5.534,10.953,10.953,0,0,1,4.014-4.014,10.775,10.775,0,0,1,5.534-1.479,10.775,10.775,0,0,1,5.534,1.479A10.986,10.986,0,0,1-216.425-110.936Zm-3.115,6.454v-1.838a.885.885,0,0,0-.272-.648.885.885,0,0,0-.648-.272h-3.675v-3.675a.885.885,0,0,0-.272-.648.893.893,0,0,0-.648-.272h-1.838a.889.889,0,0,0-.645.272.885.885,0,0,0-.272.648v3.675h-3.677a.88.88,0,0,0-.645.272.885.885,0,0,0-.272.648v1.838a.88.88,0,0,0,.272.645.88.88,0,0,0,.645.272h3.677v3.677a.881.881,0,0,0,.272.645.881.881,0,0,0,.645.272h1.838a.885.885,0,0,0,.648-.272.88.88,0,0,0,.272-.645v-3.677h3.675a.885.885,0,0,0,.648-.272A.88.88,0,0,0-219.54-104.482Z" transform="translate(237 116.429)" fill="#fff"/></svg>