<svg xmlns="http://www.w3.org/2000/svg" width="22.053" height="22.055" viewBox="0 0 22.053 22.055"><path d="M-206.139-110.936a10.8,10.8,0,0,1,1.477,5.534,10.807,10.807,0,0,1-1.477,5.536,10.964,10.964,0,0,1-4.014,4.012,10.786,10.786,0,0,1-5.534,1.479,10.789,10.789,0,0,1-5.536-1.479,10.942,10.942,0,0,1-4.012-4.012,10.789,10.789,0,0,1-1.479-5.536,10.781,10.781,0,0,1,1.479-5.534,10.964,10.964,0,0,1,4.012-4.014,10.788,10.788,0,0,1,5.536-1.479,10.786,10.786,0,0,1,5.534,1.479A10.985,10.985,0,0,1-206.139-110.936Zm-3.115,6.454v-1.838a.887.887,0,0,0-.274-.648.88.88,0,0,0-.645-.272H-221.2a.881.881,0,0,0-.645.272.885.885,0,0,0-.272.648v1.838a.88.88,0,0,0,.272.645.881.881,0,0,0,.645.272h11.027a.88.88,0,0,0,.645-.272A.883.883,0,0,0-209.254-104.482Z" transform="translate(226.714 116.429)" fill="#fff"/></svg>