<svg xmlns="http://www.w3.org/2000/svg" width="12.619" height="19.637" viewBox="0 0 12.619 19.637"><path d="M-128.009-32.745l-9.039,9.039a.747.747,0,0,1-.548.231.751.751,0,0,1-.549-.231l-2.021-2.023a.747.747,0,0,1-.231-.548.751.751,0,0,1,.231-.549l6.469-6.467-6.469-6.469a.747.747,0,0,1-.231-.548.748.748,0,0,1,.231-.549l2.021-2.021a.753.753,0,0,1,.549-.233.749.749,0,0,1,.548.233l9.039,9.037a.751.751,0,0,1,.231.549A.747.747,0,0,1-128.009-32.745Z" transform="translate(140.397 43.112)" fill="#fff"/></svg>